<?xml version="1.0" encoding="utf-8"?>
<!-- Generator: Adobe Illustrator 19.1.0, SVG Export Plug-In . SVG Version: 6.00 Build 0)  -->
<svg version="1.1" id="Layer_1" xmlns="http://www.w3.org/2000/svg" xmlns:xlink="http://www.w3.org/1999/xlink" x="0px" y="0px"
	 width="40px" height="40px" viewBox="0 0 40 40" style="enable-background:new 0 0 40 40;" xml:space="preserve">
<style type="text/css">
	.st0{fill:#FFC559;}
	.st1{fill:#F68C2C;}
	.st2{fill:#D51067;}
	.st3{fill:#FFFFFF;}
	.st4{fill:#881D5A;}
	.st5{fill:#215AA8;}
	.st6{fill:#C7202F;}
	.st7{fill:#1B459B;}
	.st8{fill:#2AC3F0;}
</style>
<g>
	<path class="st0" d="M17.6,10.4L17.6,10.4c1.9-0.9,4-1.5,6.2-1.5c1,0,2.1,0.1,3.1,0.3c2.5-0.2,5.1,0.5,7.2,2.2
		c1.4,1.1,2.5,2.5,3.1,4.1c0.3-3.4-1.1-6.8-3.9-9.1c-4.5-3.5-11.1-2.7-14.6,1.8c-0.5,0.6-0.9,1.3-1.2,2
		C17.5,10.3,17.5,10.3,17.6,10.4L17.6,10.4z"/>
	<path class="st1" d="M37.7,22.3c0-7.7-6.2-13.9-13.9-13.9c-2.2,0-4.3,0.5-6.2,1.5l0,0c5.4,4.4,11.9,10.4,18.2,6.5
		c-0.9,2.2-2.4,4.2-4.3,5.7c0,0,0,0,0,0c1.7,2.5,2.8,5.5,2.8,8.7c0,0.2,0,0.5,0,0.7C36.4,29,37.7,25.8,37.7,22.3z"/>
	<path class="st2" d="M17.3,9.6c-1.9-1.6-3.7-2.9-5.3-3.4C8.8,5.1,7.4,5.9,5.7,6.8c-1.4,0.7-3.1,1-3.1,1s5,1.5,7,6.2
		c0.5,1.1,1.4,3.1,1.5,3.2l0,0l0,0c-0.1,0,1.4-4.7,5.9-7c0.2-0.1,0.4-0.2,0.6-0.3C17.5,9.8,17.4,9.7,17.3,9.6z"/>
	<path class="st2" d="M13.4,3.2c0-0.1,0.1-0.2,0.1-0.4c0.1-0.2,0.1-0.3,0.1-0.3c0.2-0.3,0.4-1-0.1-1.2c-0.6-0.3-0.9,0.5-0.9,0.5
		c-0.8,1.7,0.1,3.4,1,4.6C13.1,5.5,13,4.3,13.4,3.2z"/>
	<circle class="st3" cx="7.7" cy="7.5" r="0.5"/>
	<path class="st4" d="M23.3,24.9c3.1,0,6-1.1,8.2-2.8c-2.8-4.1-7.5-6.8-12.8-6.8c-2.8,0-5.4,0.7-7.6,1.9
		C13.3,21.7,17.9,24.9,23.3,24.9z"/>
	<path class="st5" d="M26.2,32.2C26.2,32.2,26.2,32.2,26.2,32.2c-0.4,0.4-0.9,0.9-1.4,1.2c-4.1,2.9-9.3,2.9-13.3,0.3
		c2.9,2.5,6.6,3.7,10.3,3.3C23.6,35.8,25.2,34.1,26.2,32.2z"/>
	<path class="st6" d="M17.6,9.9c-4.8,2.2-6.5,7.1-6.5,7.3c2.2-1.3,4.8-1.9,7.6-1.9c5.3,0,10,2.7,12.8,6.8c1.9-1.5,3.4-3.5,4.3-5.7
		C29.5,20.3,23,14.3,17.6,9.9z"/>
	<path class="st7" d="M28,24c0.3,2.9-0.4,5.7-1.7,8.2c-1.6,2.9-4.2,5.2-7.4,6.4c8.4,0.9,17.3-6.7,13.7-14.7
		c-0.3-0.6-0.7-1.2-1.1-1.8C30.5,22.9,29.3,23.6,28,24z"/>
	<path class="st8" d="M26.1,24.6C26.1,24.6,26.1,24.6,26.1,24.6c-0.1,2.1-0.8,4.2-2.2,6c-1.1,1.4-2.5,2.5-4,3.2
		c2.2,0.2,4.4-0.4,6.4-1.6c1.4-2.4,2-5.3,1.7-8.2C27.4,24.3,26.7,24.4,26.1,24.6z"/>
</g>
</svg>
