<?xml version="1.0" encoding="utf-8"?>
<!-- Generator: Adobe Illustrator 19.1.0, SVG Export Plug-In . SVG Version: 6.00 Build 0)  -->
<svg version="1.1" id="Layer_1" xmlns="http://www.w3.org/2000/svg" xmlns:xlink="http://www.w3.org/1999/xlink" x="0px" y="0px"
	 width="336px" height="42px" viewBox="0 0 336 42" style="enable-background:new 0 0 336 42;" xml:space="preserve">
<style type="text/css">
	.st0{fill:#404041;}
	.st1{fill:#FFC559;}
	.st2{fill:#F68C2C;}
	.st3{fill:#D51067;}
	.st4{fill:#FFFFFF;}
	.st5{fill:#881D5A;}
	.st6{fill:#215AA8;}
	.st7{fill:#C7202F;}
	.st8{fill:#1B459B;}
	.st9{fill:#2AC3F0;}
</style>
<g>
	<g>
		<path class="st0" d="M52.3,20.2h-3.5V6.5c1.2-0.2,3-0.3,4.5-0.3c3.4,0,5.9,1.6,5.9,5.1c0,3.6-2.8,5-5.7,5c-0.4,0-1,0-1.2,0V20.2z
			 M52.3,13.2c0.2,0,0.7,0,1,0c1.4,0,2.4-0.6,2.4-2c0-1.5-1.1-2-2.4-2c-0.3,0-0.8,0-1,0.1V13.2z"/>
		<path class="st0" d="M71.5,17.6l-1,2.6h-3.7l5.4-13.8h4.2l5.4,13.8H78L77,17.6H71.5z M74.3,9.8l-1.8,4.9H76L74.3,9.8z"/>
		<path class="st0" d="M94.7,20.2h-3.4V6.4c1.1-0.2,2.9-0.3,4.4-0.3c3.5,0,5.9,1.5,5.9,4.8c0,2-1.1,3.4-2.5,4.1l3.7,5.2h-4.1l-3-4.4
			h-1V20.2z M94.7,12.9h0.9c1.4,0,2.5-0.5,2.5-1.9c0-1.4-1.1-1.9-2.4-1.9c-0.3,0-0.8,0-1,0V12.9z"/>
		<path class="st0" d="M116.2,17.6l-1,2.6h-3.7L117,6.4h4.2l5.4,13.8h-3.8l-0.9-2.6H116.2z M119,9.8l-1.8,4.9h3.5L119,9.8z"/>
		<path class="st0" d="M136,6.5c1-0.2,2.9-0.3,4.6-0.3c4.6,0,7.8,2.4,7.8,7c0,5.1-3.3,7.2-7.8,7.2c-1.7,0-3.5-0.1-4.5-0.3V6.5z
			 M139.5,17.3c0.4,0,1,0.1,1.5,0.1c2.3,0,3.9-1.3,3.9-4.2c0-2.7-1.7-3.8-3.9-3.8c-0.4,0-1,0-1.4,0.1V17.3z"/>
		<path class="st0" d="M162.3,20.2h-3.5V6.4h3.5V20.2z"/>
		<path class="st0" d="M173,16.1c1,0.8,2.3,1.4,3.8,1.4c1,0,2-0.3,2-1.2c0-0.8-0.7-1.1-2.1-1.5c-2.9-0.7-3.9-2-3.9-4.3
			c0-2.7,2.1-4.3,4.8-4.3c1.7,0,2.8,0.4,3.8,1v3.4c-1.1-0.9-2.3-1.4-3.7-1.4c-1,0-1.6,0.5-1.6,1.1c0,0.9,0.8,1.2,2.3,1.5
			c2.8,0.7,3.8,2.1,3.8,4.4c0,3-2.4,4.3-5.3,4.3c-1.5,0-2.9-0.4-3.8-1V16.1z"/>
		<path class="st0" d="M201.8,17.1v3h-9.3V6.4h9.1v3h-5.7v2.4h5.2v3h-5.2v2.4H201.8z"/>
		<path class="st0" d="M227.4,9.7c-1-0.9-2.4-1.4-3.9-1.4c-2.8,0-4.8,2-4.8,5c0,3.1,2.1,5.1,4.8,5.1c0.9,0,1.5-0.1,2-0.3v-4.2h2.4
			v5.6c-1.1,0.7-2.8,1-4.5,1c-4.3,0-7.2-2.8-7.2-7.1c0-4.2,3-7.1,7.1-7.1c1.6,0,2.9,0.4,4,1V9.7z"/>
		<path class="st0" d="M241.2,16.9l-1.2,3.3h-2.5l5.4-13.8h2.9l5.4,13.8h-2.6l-1.2-3.3H241.2z M244.3,8.6l-2.4,6.4h4.7L244.3,8.6z"
			/>
		<path class="st0" d="M263.4,20.2H261V6.4c0.8-0.1,2.3-0.3,3.4-0.3c3.6,0,5.6,1.6,5.6,4.5c0,2-1.1,3.5-2.7,4.1l4.2,5.4h-2.9
			l-3.7-4.9h-1.6V20.2z M263.4,13.3h1.2c1.9,0,3.1-0.8,3.1-2.6c0-1.6-1.1-2.5-3.2-2.5c-0.3,0-0.8,0-1.1,0V13.3z"/>
		<path class="st0" d="M281.3,6.4c1-0.1,2.4-0.3,3.7-0.3c5.5,0,8.1,2.9,8.1,6.9c0,4.4-2.7,7.4-8.1,7.4c-1.4,0-2.7-0.1-3.7-0.3V6.4z
			 M283.7,18.2c0.5,0.1,1,0.1,1.6,0.1c3.2,0,5.4-1.7,5.4-5.3c0-3-1.9-4.7-5.6-4.7c-0.4,0-0.9,0-1.4,0.1V18.2z"/>
		<path class="st0" d="M312.4,18.1v2.1h-8.6V6.4h8.5v2.1h-6.1v3.7h5.7v2h-5.7v3.9H312.4z"/>
		<path class="st0" d="M332.6,16.6V6.4h2.3v13.8h-2.3l-7.1-10.1v10.1h-2.3V6.4h2.4L332.6,16.6z"/>
		<path class="st0" d="M48,36.8c0.8,0.6,1.4,1,2.4,1c1.1,0,2.1-0.5,2.1-1.7c0-1.1-0.8-1.5-2-2C48.9,33.5,48,33,48,31.4
			c0-1.6,1.3-2.4,2.7-2.4c0.9,0,1.7,0.3,2.2,0.7v1c-0.8-0.6-1.4-0.9-2.2-0.9c-1.1,0-1.8,0.6-1.8,1.6c0,0.9,0.5,1.3,1.9,1.8
			c1.7,0.6,2.7,1.2,2.7,2.9c0,1.7-1.4,2.6-3,2.6c-1,0-1.8-0.3-2.4-0.7V36.8z"/>
		<path class="st0" d="M55.1,27.8H56v4.1c0.5-0.2,1.3-0.4,2-0.4c1.7,0,2.7,0.7,2.7,2.4v4.6h-0.9V34c0-1.4-1-1.7-1.9-1.7
			c-0.7,0-1.4,0.2-1.9,0.3v5.8h-0.9V27.8z"/>
		<path class="st0" d="M65.7,31.4c2.1,0,3.5,1.5,3.5,3.6c0,2.1-1.4,3.6-3.5,3.6c-2.1,0-3.5-1.5-3.5-3.6
			C62.3,32.9,63.7,31.4,65.7,31.4z M65.7,32.3c-1.5,0-2.5,1.1-2.5,2.8c0,1.7,1,2.8,2.5,2.8c1.5,0,2.5-1.1,2.5-2.8
			C68.2,33.4,67.2,32.3,65.7,32.3z"/>
		<path class="st0" d="M70.7,31.9c0.6-0.2,1.5-0.4,2.4-0.4c2.4,0,3.8,1.2,3.8,3.6c0,2.2-1.5,3.6-3.7,3.6c-0.6,0-1.2-0.1-1.5-0.3v3
			h-0.9V31.9z M71.7,37.5c0.4,0.2,0.9,0.3,1.5,0.3c1.7,0,2.8-1,2.8-2.8c0-1.7-1-2.7-2.8-2.7c-0.5,0-1.1,0.1-1.5,0.2V37.5z"/>
		<path class="st0" d="M78.5,31.9c0.6-0.2,1.5-0.4,2.4-0.4c2.4,0,3.8,1.2,3.8,3.6c0,2.2-1.5,3.6-3.7,3.6c-0.6,0-1.2-0.1-1.5-0.3v3
			h-0.9V31.9z M79.5,37.5c0.4,0.2,0.9,0.3,1.5,0.3c1.7,0,2.8-1,2.8-2.8c0-1.7-1-2.7-2.8-2.7c-0.5,0-1.1,0.1-1.5,0.2V37.5z"/>
		<path class="st0" d="M86,29.5c0-0.4,0.3-0.7,0.7-0.7c0.4,0,0.7,0.3,0.7,0.7c0,0.4-0.3,0.7-0.7,0.7C86.4,30.2,86,29.8,86,29.5z
			 M87.2,38.5h-0.9v-6.9h0.9V38.5z"/>
		<path class="st0" d="M89.2,32c0.9-0.3,2-0.5,2.9-0.5c1.7,0,2.8,0.7,2.8,2.4v4.6h-0.9V34c0-1.4-1-1.7-1.9-1.7
			c-0.7,0-1.4,0.1-1.9,0.3v5.9h-0.9V32z"/>
		<path class="st0" d="M101.7,38.3c-0.2,0.2-0.9,0.3-1.4,0.3c-2.3,0-3.8-1.2-3.8-3.5c0-2.2,1.5-3.6,4-3.6c0.7,0,1.7,0.2,2.2,0.4v6.7
			c0,2.1-1.6,2.9-3.2,2.9c-0.8,0-1.6-0.2-2.1-0.4v-0.9c0.6,0.3,1.4,0.5,2.1,0.5c1.1,0,2.2-0.6,2.2-2.3V38.3z M101.7,32.5
			c-0.4-0.1-0.8-0.2-1.3-0.2c-1.9,0-3,1-3,2.7c0,1.7,1.1,2.7,2.9,2.7c0.6,0,0.9-0.1,1.4-0.3V32.5z"/>
		<path class="st0" d="M114.6,30.8c-0.7-0.6-1.6-1-2.6-1c-2.1,0-3.8,1.5-3.8,4c0,2.4,1.7,4,3.8,4c1,0,2-0.3,2.7-0.9V38
			c-0.7,0.4-1.7,0.7-2.6,0.7c-2.8,0-4.8-2-4.8-4.9c0-2.9,2.1-4.8,4.8-4.8c0.9,0,1.8,0.3,2.6,0.7V30.8z"/>
		<path class="st0" d="M116.6,35.1L116.6,35.1c0,1.7,1.2,2.7,2.6,2.7c1,0,1.7-0.3,2.4-0.8V38c-0.6,0.5-1.5,0.7-2.4,0.7
			c-2,0-3.5-1.4-3.5-3.6c0-2.1,1.4-3.6,3.3-3.6c1.7,0,2.9,1,2.9,3v0.6H116.6z M120.9,34.3c-0.1-1.4-0.8-2-2-2c-1.1,0-1.9,0.7-2.2,2
			H120.9z"/>
		<path class="st0" d="M123.4,32c0.9-0.3,2-0.5,2.9-0.5c1.7,0,2.8,0.7,2.8,2.4v4.6h-0.9V34c0-1.4-1-1.7-1.9-1.7
			c-0.7,0-1.4,0.1-1.9,0.3v5.9h-0.9V32z"/>
		<path class="st0" d="M130.2,31.6h1.1v-1.7h0.9v1.7h1.9v0.8h-1.9v4.2c0,0.9,0.3,1.2,1,1.2c0.4,0,0.8-0.1,1.3-0.4v0.8
			c-0.4,0.2-0.9,0.3-1.5,0.3c-1,0-1.7-0.5-1.7-1.9v-4.3h-1.1V31.6z"/>
		<path class="st0" d="M136.7,38.5h-0.9v-6.3c0.7-0.5,1.6-0.7,2.6-0.7c0.4,0,0.8,0,1.2,0.1v0.9c-0.4-0.1-0.9-0.2-1.2-0.2
			c-0.7,0-1.2,0.1-1.5,0.3V38.5z"/>
		<path class="st0" d="M141,35.1L141,35.1c0,1.7,1.2,2.7,2.6,2.7c1,0,1.7-0.3,2.4-0.8V38c-0.6,0.5-1.5,0.7-2.4,0.7
			c-2,0-3.5-1.4-3.5-3.6c0-2.1,1.4-3.6,3.3-3.6c1.7,0,2.9,1,2.9,3v0.6H141z M145.3,34.3c-0.1-1.4-0.8-2-2-2c-1.1,0-1.9,0.7-2.2,2
			H145.3z"/>
	</g>
</g>
<g>
	<path class="st1" d="M15.4,10.5L15.4,10.5c1.9-0.9,4-1.5,6.2-1.5c1,0,2.1,0.1,3.1,0.3c2.5-0.2,5.1,0.5,7.2,2.2
		c1.4,1.1,2.5,2.5,3.1,4.1c0.3-3.4-1.1-6.8-3.9-9.1C26.4,3,19.9,3.8,16.4,8.3c-0.5,0.6-0.9,1.3-1.2,2C15.2,10.4,15.3,10.4,15.4,10.5
		L15.4,10.5z"/>
	<path class="st2" d="M35.4,22.4c0-7.7-6.2-13.9-13.9-13.9c-2.2,0-4.3,0.5-6.2,1.5l0,0c5.4,4.4,11.9,10.4,18.2,6.5
		c-0.9,2.2-2.4,4.2-4.3,5.7c0,0,0,0,0,0c1.7,2.5,2.8,5.5,2.8,8.7c0,0.2,0,0.5,0,0.7C34.1,29.1,35.4,25.9,35.4,22.4z"/>
	<path class="st3" d="M15,9.7c-1.9-1.6-3.7-2.9-5.3-3.4C6.6,5.2,5.2,6,3.5,6.9c-1.4,0.7-3.1,1-3.1,1s5,1.5,7,6.2
		c0.5,1.1,1.4,3.1,1.5,3.2l0,0l0,0c-0.1,0,1.4-4.7,5.9-7c0.2-0.1,0.4-0.2,0.6-0.3C15.3,9.9,15.1,9.8,15,9.7z"/>
	<path class="st3" d="M11.2,3.3c0-0.1,0.1-0.2,0.1-0.4c0.1-0.2,0.1-0.3,0.1-0.3c0.2-0.3,0.4-1-0.1-1.2c-0.6-0.3-0.9,0.5-0.9,0.5
		c-0.8,1.7,0.1,3.4,1,4.6C10.9,5.5,10.8,4.4,11.2,3.3z"/>
	<circle class="st4" cx="5.5" cy="7.6" r="0.5"/>
	<path class="st5" d="M21,25c3.1,0,6-1.1,8.2-2.8c-2.8-4.1-7.5-6.8-12.8-6.8c-2.8,0-5.4,0.7-7.6,1.9C11,21.8,15.7,25,21,25z"/>
	<path class="st6" d="M24,32.3C24,32.3,24,32.3,24,32.3c-0.4,0.4-0.9,0.9-1.4,1.2c-4.1,2.9-9.3,2.9-13.3,0.3
		c2.9,2.5,6.6,3.7,10.3,3.3C21.4,35.9,22.9,34.2,24,32.3z"/>
	<path class="st7" d="M15.4,10c-4.8,2.2-6.5,7.1-6.5,7.3c2.2-1.3,4.8-1.9,7.6-1.9c5.3,0,10,2.7,12.8,6.8c1.9-1.5,3.4-3.5,4.3-5.7
		C27.3,20.3,20.8,14.4,15.4,10z"/>
	<path class="st8" d="M25.7,24.1c0.3,2.9-0.4,5.7-1.7,8.2c-1.6,2.9-4.2,5.2-7.4,6.4C25,39.5,33.9,32,30.4,24
		c-0.3-0.6-0.7-1.2-1.1-1.8C28.2,23,27,23.6,25.7,24.1z"/>
	<path class="st9" d="M23.8,24.7C23.8,24.7,23.8,24.7,23.8,24.7c-0.1,2.1-0.8,4.2-2.2,6c-1.1,1.4-2.5,2.5-4,3.2
		c2.2,0.2,4.4-0.4,6.4-1.6c1.4-2.4,2-5.3,1.7-8.2C25.1,24.3,24.5,24.5,23.8,24.7z"/>
</g>
</svg>
